# xmcd CD database file
#
# Track frame offsets:
#	150
#	11666
#	23037
#	32607
#	44277
#	56996
#	69941
#	81761
#	92981
#	104876
#	115121
#	124466
#	136436
#	146081
#	155201
#	165146
#	178016
#	191711
#	202256
#	212126
#	225071
#	237491
#	248861
#	259031
#	271226
#
# Disc length: 3763 seconds
#
# Revision: 0
# Processed by: cddbd v1.5.2PL0 Copyright (c) Steve Scherf et al.
# Submitted via: CDex 1.51
#
DISCID=6f0eb119
DTITLE=Various Artist - Country Western  CD 14  1954
DYEAR=2012
DGENRE=Country
TTITLE0=Carl Smith-Loose Talk
TTITLE1=Wanda Jackson and Billy Gray-You Can't Have My Love
TTITLE2=Hank Thompson-The New Green Light
TTITLE3=Webb Pierce-You're Not Mine Anymore
TTITLE4=Eddy Arnold-My Everything
TTITLE5=Slim Whitman-Secret Love
TTITLE6=Jimmy Newman-Cry Cry Darling
TTITLE7=The Carlisles-Tain't Nice
TTITLE8=Little Jimmy Dickens-Take Me As I Am
TTITLE9=Billy Walker-Thank You For Calling-Stereo
TTITLE10=Carl Smith-Go Boy Go
TTITLE11=Red and Betty Foley-As Far As I'm Concerned
TTITLE12=Ray Price-If You Don't Somebody Else Will
TTITLE13=Johnnie and Jack-Beware Of It
TTITLE14=Hank Thompson-A Fooler A Faker
TTITLE15=Kitty Wells-Cheatin's A Sin
TTITLE16=T Texas Tyler-Courtin' In The Rain
TTITLE17=Faron Young-If You Ain't Lovin'
TTITLE18=Terry Fell-Don't Drop It
TTITLE19=Webb Pierce-Sparkling Brown Eyes
TTITLE20=Eddy Arnold-This Is The Thanks I Get
TTITLE21=Carl Smith-Back Up Buddy
TTITLE22=Johnnie and Jack-Goodnight Sweetheart Goodnight
TTITLE23=Hank Thompson-Breaking The Rules
TTITLE24=Slim Whitman-Singing Hills
EXTD=YEAR: 2012
EXTT0=
EXTT1=
EXTT2=
EXTT3=
EXTT4=
EXTT5=
EXTT6=
EXTT7=
EXTT8=
EXTT9=
EXTT10=
EXTT11=
EXTT12=
EXTT13=
EXTT14=
EXTT15=
EXTT16=
EXTT17=
EXTT18=
EXTT19=
EXTT20=
EXTT21=
EXTT22=
EXTT23=
EXTT24=
PLAYORDER=
